<mxfile host="app.diagrams.net" modified="2020-05-07T14:41:47.012Z" agent="5.0 (Macintosh; Intel Mac OS X 10_14_6) AppleWebKit/605.1.15 (KHTML, like Gecko) Version/13.1 Safari/605.1.15" etag="F-B-NeA39_NEbz80bQdW" version="13.0.9" type="github">
  <diagram id="C5RBs43oDa-KdzZeNtuy" name="Page-1">
    <mxGraphModel dx="1426" dy="842" grid="1" gridSize="10" guides="1" tooltips="1" connect="1" arrows="1" fold="1" page="1" pageScale="1" pageWidth="827" pageHeight="1169" math="0" shadow="0">
      <root>
        <mxCell id="WIyWlLk6GJQsqaUBKTNV-0" />
        <mxCell id="WIyWlLk6GJQsqaUBKTNV-1" parent="WIyWlLk6GJQsqaUBKTNV-0" />
        <mxCell id="L65D2SFwfMvNNgJAx6mo-6" value="" style="edgeStyle=orthogonalEdgeStyle;rounded=0;orthogonalLoop=1;jettySize=auto;html=1;" edge="1" parent="WIyWlLk6GJQsqaUBKTNV-1" target="L65D2SFwfMvNNgJAx6mo-3">
          <mxGeometry relative="1" as="geometry">
            <mxPoint x="295" y="320" as="sourcePoint" />
          </mxGeometry>
        </mxCell>
        <mxCell id="L65D2SFwfMvNNgJAx6mo-5" value="" style="edgeStyle=orthogonalEdgeStyle;rounded=0;orthogonalLoop=1;jettySize=auto;html=1;" edge="1" parent="WIyWlLk6GJQsqaUBKTNV-1" source="L65D2SFwfMvNNgJAx6mo-3" target="L65D2SFwfMvNNgJAx6mo-4">
          <mxGeometry relative="1" as="geometry" />
        </mxCell>
        <mxCell id="L65D2SFwfMvNNgJAx6mo-3" value="predicate" style="rounded=0;whiteSpace=wrap;html=1;fillColor=#dae8fc;strokeColor=#6c8ebf;" vertex="1" parent="WIyWlLk6GJQsqaUBKTNV-1">
          <mxGeometry x="240" y="370" width="110" height="50" as="geometry" />
        </mxCell>
        <mxCell id="L65D2SFwfMvNNgJAx6mo-14" value="" style="edgeStyle=orthogonalEdgeStyle;rounded=0;orthogonalLoop=1;jettySize=auto;html=1;" edge="1" parent="WIyWlLk6GJQsqaUBKTNV-1" source="L65D2SFwfMvNNgJAx6mo-4" target="L65D2SFwfMvNNgJAx6mo-13">
          <mxGeometry relative="1" as="geometry" />
        </mxCell>
        <mxCell id="L65D2SFwfMvNNgJAx6mo-4" value="priority" style="rounded=0;whiteSpace=wrap;html=1;fillColor=#dae8fc;strokeColor=#6c8ebf;" vertex="1" parent="WIyWlLk6GJQsqaUBKTNV-1">
          <mxGeometry x="240" y="470" width="110" height="50" as="geometry" />
        </mxCell>
        <mxCell id="L65D2SFwfMvNNgJAx6mo-13" value="绑定Node" style="rounded=0;whiteSpace=wrap;html=1;fillColor=#dae8fc;strokeColor=#6c8ebf;" vertex="1" parent="WIyWlLk6GJQsqaUBKTNV-1">
          <mxGeometry x="240" y="580" width="110" height="50" as="geometry" />
        </mxCell>
        <mxCell id="L65D2SFwfMvNNgJAx6mo-17" value="完成" style="ellipse;whiteSpace=wrap;html=1;aspect=fixed;fillColor=#d5e8d4;strokeColor=#82b366;" vertex="1" parent="WIyWlLk6GJQsqaUBKTNV-1">
          <mxGeometry x="270" y="690" width="50" height="50" as="geometry" />
        </mxCell>
        <mxCell id="L65D2SFwfMvNNgJAx6mo-18" value="" style="edgeStyle=orthogonalEdgeStyle;rounded=0;orthogonalLoop=1;jettySize=auto;html=1;" edge="1" parent="WIyWlLk6GJQsqaUBKTNV-1" source="L65D2SFwfMvNNgJAx6mo-13" target="L65D2SFwfMvNNgJAx6mo-17">
          <mxGeometry relative="1" as="geometry">
            <mxPoint x="295" y="660" as="sourcePoint" />
            <mxPoint x="295" y="740" as="targetPoint" />
          </mxGeometry>
        </mxCell>
        <mxCell id="L65D2SFwfMvNNgJAx6mo-19" value="开始" style="ellipse;whiteSpace=wrap;html=1;aspect=fixed;fillColor=#d5e8d4;strokeColor=#82b366;" vertex="1" parent="WIyWlLk6GJQsqaUBKTNV-1">
          <mxGeometry x="270" y="270" width="50" height="50" as="geometry" />
        </mxCell>
        <mxCell id="L65D2SFwfMvNNgJAx6mo-21" value="开始抢占" style="rounded=0;whiteSpace=wrap;html=1;fillColor=#dae8fc;strokeColor=#6c8ebf;" vertex="1" parent="WIyWlLk6GJQsqaUBKTNV-1">
          <mxGeometry x="440" y="430" width="110" height="50" as="geometry" />
        </mxCell>
        <mxCell id="L65D2SFwfMvNNgJAx6mo-22" value="选择合适的节点" style="rounded=1;whiteSpace=wrap;html=1;fillColor=#eeeeee;strokeColor=#36393d;shadow=0;comic=0;glass=0;" vertex="1" parent="WIyWlLk6GJQsqaUBKTNV-1">
          <mxGeometry x="460" y="170" width="190" height="210" as="geometry" />
        </mxCell>
      </root>
    </mxGraphModel>
  </diagram>
</mxfile>
